<svg xmlns="http://www.w3.org/2000/svg" viewBox="0 0 80 81">
  <rect width="80" height="81" fill="#ffffff"/>
  <!-- Sporto sphere icon (extracted from SPORTOSFERA logo) -->
  <g fill="#231f20">
    <circle cx="40" cy="55.89" r="9.36" transform="translate(-21.57 86.44) rotate(-80.81)"/>
    <circle cx="40" cy="25.19" r="9.36" transform="translate(-6.58 17.11) rotate(-22.37)"/>
    <circle cx="24.64" cy="40.54" r="9.36" transform="translate(-13.71 12.61) rotate(-22.64)"/>
    <circle cx="55.34" cy="40.54" r="9.36" transform="translate(-10.64 21.74) rotate(-20.32)"/>
    <path d="M66.17,11.47c-.83,1.2-3.4.86-5.76-.76s-3.59-3.91-2.77-5.11,3.4-.86,5.76.76c2.35,1.62,3.59,3.91,2.77,5.11Z"/>
    <path d="M57.64,75.49c.83,1.2,3.4.86,5.76-.76,2.35-1.62,3.59-3.91,2.77-5.11-.83-1.2-3.4-.86-5.76.76s-3.59,3.91-2.77,5.11Z"/>
    <path d="M67.88,66.97c1.16.88,3.5-.24,5.24-2.51,1.74-2.27,2.21-4.83,1.05-5.71-1.16-.88-3.5.24-5.24,2.51-1.74,2.27-2.21,4.83-1.05,5.71Z"/>
    <path d="M74.17,22.34c-1.16.88-3.5-.24-5.24-2.51-1.74-2.27-2.21-4.83-1.05-5.71,1.16-.88,3.5.24,5.24,2.51,1.74,2.27,2.21,4.83,1.05,5.71Z"/>
    <path d="M59.09,18.66c-1.99,2.23-6.24,1.69-9.49-1.22-3.25-2.9-4.27-7.07-2.28-9.3,1.99-2.23,6.24-1.69,9.49,1.22,3.25,2.9,4.27,7.07,2.28,9.3Z"/>
    <path d="M47.32,72.93c1.99,2.23,6.24,1.69,9.49-1.22,3.25-2.9,4.27-7.07,2.28-9.3-1.99-2.23-6.24-1.69-9.49,1.22-3.25,2.9-4.27,7.07-2.28,9.3Z"/>
    <path d="M62.03,60.51c2.46,1.7,6.46.16,8.94-3.43,2.47-3.59,2.48-7.87.01-9.57-2.46-1.7-6.46-.16-8.94,3.43-2.47,3.59-2.48,7.87-.01,9.57Z"/>
    <path d="M70.98,33.57c-2.46,1.7-6.46.16-8.94-3.43-2.47-3.59-2.48-7.87-.01-9.57,2.46-1.7,6.46-.16,8.94,3.43,2.47,3.59,2.48,7.87.01,9.57Z"/>
    <path d="M79.98,40.54c0,3.63-1.46,6.58-3.26,6.58s-3.26-2.95-3.26-6.58,1.46-6.58,3.26-6.58,3.26,2.95,3.26,6.58Z"/>
    <path d="M13.81,11.47c.83,1.2,3.4.86,5.76-.76s3.59-3.91,2.77-5.11c-.83-1.2-3.4-.86-5.76.76-2.35,1.62-3.59,3.91-2.77,5.11Z"/>
    <path d="M22.33,75.49c-.83,1.2-3.4.86-5.76-.76-2.35-1.62-3.59-3.91-2.77-5.11.83-1.2,3.4-.86,5.76.76s3.59,3.91,2.77,5.11Z"/>
    <path d="M12.1,66.97c-1.16.88-3.5-.24-5.24-2.51-1.74-2.27-2.21-4.83-1.05-5.71,1.16-.88,3.5.24,5.24,2.51,1.74,2.27,2.21,4.83,1.05,5.71Z"/>
    <path d="M5.81,22.34c1.16.88,3.5-.24,5.24-2.51,1.74-2.27,2.21-4.83,1.05-5.71-1.16-.88-3.5.24-5.24,2.51-1.74,2.27-2.21,4.83-1.05,5.71Z"/>
    <path d="M20.89,18.66c1.99,2.23,6.24,1.69,9.49-1.22,3.25-2.9,4.27-7.07,2.28-9.3-1.99-2.23-6.24-1.69-9.49,1.22-3.25,2.9-4.27,7.07-2.28,9.3Z"/>
    <path d="M32.66,72.93c-1.99,2.23-6.24,1.69-9.49-1.22-3.25-2.9-4.27-7.07-2.28-9.3,1.99-2.23,6.24-1.69,9.49,1.22,3.25,2.9,4.27,7.07-2.28,9.3Z"/>
    <path d="M17.95,60.51c-2.46,1.7-6.46.16-8.94-3.43-2.47-3.59-2.48-7.87-.01-9.57,2.46-1.7,6.46-.16,8.94,3.43,2.47,3.59,2.48,7.87.01,9.57Z"/>
    <path d="M9,33.57c2.46,1.7,6.46.16,8.94-3.43,2.47-3.59,2.48-7.87.01-9.57-2.46-1.7-6.46-.16-8.94,3.43-2.47,3.59-2.48,7.87-.01,9.57Z"/>
    <path d="M0,40.54c0,3.63,1.46,6.58,3.26,6.58s3.26-2.95,3.26-6.58-1.46-6.58-3.26-6.58-3.26,2.95,3.26,6.58Z"/>
    <path d="M46.11,3.14c0,1.73-2.74,3.14-6.12,3.14s-6.12-1.4-6.12-3.14,2.74-3.14,6.12-3.14,6.12,1.4,6.12,3.14Z"/>
    <path d="M46.11,77.95c0,1.73-2.74,3.14-6.12,3.14s-6.12-1.4-6.12-3.14,2.74-3.14,6.12-3.14,6.12,1.4,6.12,3.14Z"/>
  </g>
</svg>
